<svg width="57" height="56" viewBox="0 0 57 56" fill="none" xmlns="http://www.w3.org/2000/svg">
<g id="icon_box_coffee_56">
<g id="Group 517778">
<g id="Union">
<mask id="path-1-outside-1_1543_1464" maskUnits="userSpaceOnUse" x="11.1763" y="8.00098" width="35" height="40" fill="black">
<rect fill="white" x="11.1763" y="8.00098" width="35" height="40"/>
<path fill-rule="evenodd" clip-rule="evenodd" d="M14.8196 13.7914L16.1461 10.001H40.7197L41.9832 13.7914H14.8196ZM13.1763 17.8355V13.7922H43.8142V17.8355H41.9607L39.2815 46.0005H17.9727L14.8432 17.8355H13.1763Z"/>
</mask>
<path fill-rule="evenodd" clip-rule="evenodd" d="M14.8196 13.7914L16.1461 10.001H40.7197L41.9832 13.7914H14.8196ZM13.1763 17.8355V13.7922H43.8142V17.8355H41.9607L39.2815 46.0005H17.9727L14.8432 17.8355H13.1763Z" fill="#4E5968"/>
<path d="M16.1461 10.001V8.40098H15.0109L14.6359 9.47247L16.1461 10.001ZM14.8196 13.7914L13.3094 13.2629L12.5645 15.3914H14.8196V13.7914ZM40.7197 10.001L42.2376 9.49503L41.873 8.40098H40.7197V10.001ZM41.9832 13.7914V15.3914H44.203L43.5011 13.2854L41.9832 13.7914ZM13.1763 13.7922V12.1922H11.5763V13.7922H13.1763ZM13.1763 17.8355H11.5763V19.4355H13.1763V17.8355ZM43.8142 13.7922H45.4142V12.1922H43.8142V13.7922ZM43.8142 17.8355V19.4355H45.4142V17.8355H43.8142ZM41.9607 17.8355V16.2355H40.5056L40.3679 17.684L41.9607 17.8355ZM39.2815 46.0005V47.6005H40.7365L40.8743 46.152L39.2815 46.0005ZM17.9727 46.0005L16.3825 46.1772L16.5407 47.6005H17.9727V46.0005ZM14.8432 17.8355L16.4334 17.6588L16.2753 16.2355H14.8432V17.8355ZM14.6359 9.47247L13.3094 13.2629L16.3298 14.3199L17.6563 10.5295L14.6359 9.47247ZM40.7197 8.40098H16.1461V11.601H40.7197V8.40098ZM43.5011 13.2854L42.2376 9.49503L39.2018 10.5069L40.4653 14.2973L43.5011 13.2854ZM14.8196 15.3914H41.9832V12.1914H14.8196V15.3914ZM11.5763 13.7922V17.8355H14.7763V13.7922H11.5763ZM43.8142 12.1922H13.1763V15.3922H43.8142V12.1922ZM45.4142 17.8355V13.7922H42.2142V17.8355H45.4142ZM41.9607 19.4355H43.8142V16.2355H41.9607V19.4355ZM40.8743 46.152L43.5535 17.987L40.3679 17.684L37.6887 45.849L40.8743 46.152ZM17.9727 47.6005H39.2815V44.4005H17.9727V47.6005ZM13.253 18.0122L16.3825 46.1772L19.5629 45.8238L16.4334 17.6588L13.253 18.0122ZM13.1763 19.4355H14.8432V16.2355H13.1763V19.4355Z" fill="#5A535E" mask="url(#path-1-outside-1_1543_1464)"/>
</g>
<path id="Vector 3210" d="M41.9624 17.8198H14.8418L17.973 46.0004H39.2818L41.9624 17.8198Z" fill="#DFE2E5"/>
<path id="Vector 3211" d="M13.1763 17.8353V13.792H43.8142V17.8353H13.1763Z" fill="#4E5968"/>
<path id="Vector 3212" d="M16.1483 10.001L14.8218 13.7914H41.9853L40.7219 10.001H16.1483Z" fill="#4E5968"/>
<path id="Vector 3213" d="M41.4658 22.8647H15.3911L17.1604 38.2152H40.0128L41.4658 22.8647Z" fill="#15C27E"/>
<circle id="Ellipse 2364" cx="28.5" cy="30.625" r="5.25" fill="#34AD7A"/>
</g>
</g>
</svg>
