<svg width="57" height="56" viewBox="0 0 57 56" fill="none" xmlns="http://www.w3.org/2000/svg">
<g id="icon_box_giftcard_56">
<g id="Group 517781">
<g id="Union">
<mask id="path-1-outside-1_1543_1489" maskUnits="userSpaceOnUse" x="9.79688" y="14.9883" width="41" height="27" fill="black">
<rect fill="white" x="9.79688" y="14.9883" width="41" height="27"/>
<path fill-rule="evenodd" clip-rule="evenodd" d="M12.0528 16.9883V25.0043C13.5741 25.2858 14.3696 26.2153 14.7475 27.087L13.2824 27.628C12.4554 28.0547 11.1884 29.2576 12.1308 30.8739C12.2759 31.1228 12.474 31.334 12.6884 31.5277C12.4551 31.6521 12.2369 31.7517 12.0528 31.8267V39.9651H48.4984V31.3703C47.7422 31.3703 47.1649 31.1068 46.7285 30.7224C45.2297 29.4022 45.3973 26.6874 47.0055 25.5028C47.4893 25.1464 48.0111 25.0043 48.4984 25.0043V16.9883H12.0528Z"/>
</mask>
<path fill-rule="evenodd" clip-rule="evenodd" d="M12.0528 16.9883V25.0043C13.5741 25.2858 14.3696 26.2153 14.7475 27.087L13.2824 27.628C12.4554 28.0547 11.1884 29.2576 12.1308 30.8739C12.2759 31.1228 12.474 31.334 12.6884 31.5277C12.4551 31.6521 12.2369 31.7517 12.0528 31.8267V39.9651H48.4984V31.3703C47.7422 31.3703 47.1649 31.1068 46.7285 30.7224C45.2297 29.4022 45.3973 26.6874 47.0055 25.5028C47.4893 25.1464 48.0111 25.0043 48.4984 25.0043V16.9883H12.0528Z" fill="white"/>
<path d="M12.0528 25.0043H10.4528V26.3354L11.7617 26.5776L12.0528 25.0043ZM12.0528 16.9883V15.3883H10.4528V16.9883H12.0528ZM14.7475 27.087L15.3017 28.588L16.8881 28.0022L16.2155 26.4507L14.7475 27.087ZM13.2824 27.628L12.7282 26.127L12.6361 26.161L12.5488 26.2061L13.2824 27.628ZM12.1308 30.8739L13.513 30.0681H13.513L12.1308 30.8739ZM12.6884 31.5277L13.4416 32.9393L15.451 31.8671L13.7609 30.3404L12.6884 31.5277ZM12.0528 31.8267L11.4498 30.3447L10.4528 30.7503V31.8267H12.0528ZM12.0528 39.9651H10.4528V41.5651H12.0528V39.9651ZM48.4984 39.9651V41.5651H50.0984V39.9651H48.4984ZM48.4984 31.3703H50.0984V29.7703H48.4984V31.3703ZM46.7285 30.7224L47.7861 29.5218V29.5218L46.7285 30.7224ZM47.0055 25.5028L46.0565 24.2146L46.0565 24.2146L47.0055 25.5028ZM48.4984 25.0043V26.6043H50.0984V25.0043H48.4984ZM48.4984 16.9883H50.0984V15.3883H48.4984V16.9883ZM13.6528 25.0043V16.9883H10.4528V25.0043H13.6528ZM16.2155 26.4507C15.6653 25.1814 14.4797 23.8262 12.3439 23.431L11.7617 26.5776C12.6684 26.7454 13.0739 27.2492 13.2795 27.7234L16.2155 26.4507ZM13.8366 29.1289L15.3017 28.588L14.1933 25.5861L12.7282 26.127L13.8366 29.1289ZM13.513 30.0681C13.4038 29.8808 13.397 29.7765 13.3969 29.7411C13.3968 29.7014 13.4059 29.648 13.4488 29.569C13.4954 29.4832 13.5755 29.3813 13.6906 29.2779C13.8055 29.1746 13.926 29.0963 14.016 29.0498L12.5488 26.2061C11.9404 26.5199 11.1349 27.1254 10.6374 28.0407C10.0828 29.0609 9.98028 30.3621 10.7486 31.6798L13.513 30.0681ZM13.7609 30.3404C13.6042 30.1988 13.5405 30.1151 13.513 30.0681L10.7486 31.6798C11.0114 32.1306 11.3437 32.4691 11.6158 32.7149L13.7609 30.3404ZM12.6558 33.3087C12.8883 33.2141 13.1567 33.0913 13.4416 32.9393L11.9352 30.116C11.7534 30.213 11.5856 30.2894 11.4498 30.3447L12.6558 33.3087ZM13.6528 39.9651V31.8267H10.4528V39.9651H13.6528ZM48.4984 38.3651H12.0528V41.5651H48.4984V38.3651ZM46.8984 31.3703V39.9651H50.0984V31.3703H46.8984ZM45.671 31.9231C46.3834 32.5505 47.3318 32.9703 48.4984 32.9703V29.7703C48.3105 29.7703 48.1741 29.7384 48.0727 29.699C47.97 29.6591 47.876 29.601 47.7861 29.5218L45.671 31.9231ZM46.0565 24.2146C44.8015 25.1391 44.1816 26.5939 44.1044 27.9723C44.0271 29.3516 44.4824 30.8762 45.671 31.9231L47.7861 29.5218C47.4758 29.2485 47.2655 28.7555 47.2994 28.1513C47.3333 27.546 47.6013 27.0511 47.9544 26.791L46.0565 24.2146ZM48.4984 23.4043C47.6914 23.4043 46.8324 23.6431 46.0565 24.2146L47.9544 26.791C48.1462 26.6498 48.3307 26.6043 48.4984 26.6043V23.4043ZM46.8984 16.9883V25.0043H50.0984V16.9883H46.8984ZM12.0528 18.5883H48.4984V15.3883H12.0528V18.5883Z" fill="#5A535E" mask="url(#path-1-outside-1_1543_1489)"/>
</g>
<path id="Vector 3219" d="M12.0527 16.9883V25.0043C14.4545 25.4487 15.0473 27.5085 15.0435 28.4058C15.0435 30.2921 13.0497 31.421 12.0527 31.8267V39.9651H48.4983V31.3703C47.7421 31.3703 47.1648 31.1068 46.7285 30.7224C45.2296 29.4022 45.3972 26.6874 47.0054 25.5028C47.4892 25.1464 48.011 25.0043 48.4983 25.0043V16.9883H12.0527Z" fill="#ECEEEF"/>
<g id="Group 517780">
<path id="Vector 3230 (Stroke)" fill-rule="evenodd" clip-rule="evenodd" d="M24.9238 25.4889C24.9238 24.8165 25.4689 24.2715 26.1412 24.2715H30.5624C31.2348 24.2715 31.7799 24.8165 31.7799 25.4889C31.7799 26.1613 31.2348 26.7063 30.5624 26.7063H26.1412C25.4689 26.7063 24.9238 26.1613 24.9238 25.4889Z" fill="#CBCBCB"/>
<path id="Vector 3231 (Stroke)" fill-rule="evenodd" clip-rule="evenodd" d="M32.9277 25.4889C32.9277 24.8165 33.4728 24.2715 34.1452 24.2715H42.7603C43.4326 24.2715 43.9777 24.8165 43.9777 25.4889C43.9777 26.1613 43.4326 26.7063 42.7603 26.7063H34.1452C33.4728 26.7063 32.9277 26.1613 32.9277 25.4889Z" fill="#CBCBCB"/>
<path id="Vector 3232 (Stroke)" fill-rule="evenodd" clip-rule="evenodd" d="M25.5918 29.9596C25.5918 29.2872 26.1369 28.7422 26.8092 28.7422H34.1452C34.8175 28.7422 35.3626 29.2872 35.3626 29.9596C35.3626 30.632 34.8175 31.177 34.1452 31.177H26.8092C26.1369 31.177 25.5918 30.632 25.5918 29.9596Z" fill="#CBCBCB"/>
<path id="Vector 3232 (Stroke)_2" fill-rule="evenodd" clip-rule="evenodd" d="M25.5918 33.6676C25.5918 32.9953 26.001 32.4502 26.5058 32.4502H32.0135C32.5183 32.4502 32.9275 32.9953 32.9275 33.6676C32.9275 34.34 32.5183 34.885 32.0135 34.885H26.5058C26.001 34.885 25.5918 34.34 25.5918 33.6676Z" fill="#CBCBCB"/>
<path id="Vector 3232 (Stroke)_3" fill-rule="evenodd" clip-rule="evenodd" d="M34.1348 33.6676C34.1348 32.9953 34.6838 32.4502 35.3611 32.4502H42.7511C43.4284 32.4502 43.9775 32.9953 43.9775 33.6676C43.9775 34.34 43.4284 34.885 42.7511 34.885H35.3611C34.6838 34.885 34.1348 34.34 34.1348 33.6676Z" fill="#CBCBCB"/>
<path id="Vector 3233 (Stroke)" fill-rule="evenodd" clip-rule="evenodd" d="M37.2363 29.9606C37.2363 29.2882 37.7814 28.7432 38.4537 28.7432H40.56C41.2324 28.7432 41.7774 29.2882 41.7774 29.9606C41.7774 30.6329 41.2324 31.178 40.56 31.178H38.4537C37.7814 31.178 37.2363 30.6329 37.2363 29.9606Z" fill="#CBCBCB"/>
</g>
<g id="Group 517779">
<path id="Vector 3225" d="M12.0717 35.9183L24.7196 16.9963L26.7306 16.9963L12.0714 38.6852L12.0717 35.9183Z" fill="#AC0003"/>
<g id="Group 517783">
<path id="Vector 3223" d="M23.2371 33.9116L20.5923 28.2158L18.6574 30.2393L19.6442 34.7339L23.2371 33.9116Z" fill="#E41B1F"/>
<path id="Vector 3220" d="M19.8547 29.15L16.4883 26.3381L18.3691 24.0863L21.7356 26.8982L19.8547 29.15Z" fill="#FF7E7F"/>
<path id="Vector 3224" d="M26.846 29.5897L20.7702 28.0016L22.4168 25.7372L27.0153 25.9077L26.846 29.5897Z" fill="#E41B1F"/>
<path id="Vector 3221" d="M19.0668 20.7025L18.4568 24.16L21.6865 26.8576L24.5401 25.6601C27.426 24.0965 26.1011 22.1116 25.2127 21.4339L23.0123 19.596C22.721 19.3527 22.4125 19.1209 22.0558 18.9912C20.2975 18.3518 19.3394 19.8127 19.0668 20.7025Z" fill="#FF3539"/>
<path id="Vector 3222" d="M13.2828 27.628L16.5764 26.4119L19.8061 29.1095L19.136 32.1308C18.1113 35.249 15.9222 34.2988 15.0971 33.5453L12.8967 31.7074C12.6054 31.4641 12.3224 31.2018 12.1312 30.8739C11.1889 29.2576 12.4558 28.0547 13.2828 27.628Z" fill="#FF3539"/>
</g>
</g>
</g>
</g>
</svg>
